<svg viewBox="0 0 24 24" fill="none"
    xmlns="http://www.w3.org/2000/svg">
    <path d="M15 2H9C8.72386 2 8.5 2.22386 8.5 2.5V4.5C8.5 4.77614 8.72386 5 9 5H15C15.2761 5 15.5 4.77614 15.5 4.5V2.5C15.5 2.22386 15.2761 2 15 2Z" fill="currentColor" />
    <path d="M6 3.5H7V4.5C7 5.60457 7.89543 6.5 9 6.5H15C16.1046 6.5 17 5.60457 17 4.5V3.5H18C18.5304 3.5 19.0391 3.71071 19.4142 4.08579C19.7893 4.46086 20 4.96957 20 5.5V19.5C20 20.0304 19.7893 20.5391 19.4142 20.9142C19.0391 21.2893 18.5304 21.5 18 21.5H6C5.46957 21.5 4.96086 21.2893 4.58579 20.9142C4.21071 20.5391 4 20.0304 4 19.5V5.5C4 4.96957 4.21071 4.46086 4.58579 4.08579C4.96086 3.71071 5.46957 3.5 6 3.5Z" fill="currentColor" />
</svg>