<svg viewBox="0 0 539 144" fill="none"
    xmlns="http://www.w3.org/2000/svg">
    <g clip-path="url(#clip0_1547_470)">
        <path d="M237.197 131.415V33.3897L214.454 37.8622C214.454 37.8622 219.761 42.2157 219.761 51.6597V131.415C219.761 137.255 214.454 142.483 214.454 142.483H242.504C242.504 142.483 237.197 137.409 237.197 131.415Z" fill="#2B2B2B" />
        <path d="M69.6772 95.4794C64.5222 91.2347 56.5362 88.557 45.7211 87.4435V86.9887C54.515 85.6755 61.0842 83.1223 65.432 79.3324C69.7763 75.5412 71.9516 70.5137 71.9516 64.2456C71.9516 56.4625 68.5135 50.6242 61.6409 46.7326C54.7662 42.8424 44.5078 40.8944 30.8624 40.8944H0C0 40.8944 4.62724 45.4561 5.23813 50.8165V132.561C4.62724 137.922 0 142.483 0 142.483H34.1979C47.9431 142.483 58.5823 140.008 66.1136 135.053C73.6427 130.102 77.4094 123.075 77.4094 113.978C77.4094 105.891 74.8322 99.7253 69.6772 95.4794ZM23.7358 44.5334H30.8624C38.3412 44.5334 43.8758 46.2024 47.4645 49.5372C51.0512 52.8735 52.8469 57.9289 52.8469 64.6992C52.8469 71.8783 51.0017 77.2087 47.3132 80.6969C43.6218 84.184 38.1403 85.9267 30.8624 85.9267H23.7358V44.5334ZM51.7098 132.78C47.7157 136.824 41.8783 138.844 34.1979 138.844H23.7358V89.5657H34.1979C41.9803 89.5657 47.8441 91.7147 51.7858 96.0111C55.7283 100.307 57.6992 106.6 57.6992 114.887C57.6992 122.772 55.7018 128.738 51.7098 132.78Z" fill="#2B2B2B" />
        <path d="M271.674 131.416V62.4127L249.083 66.9739C249.083 66.9739 254.39 71.9539 254.39 81.0754V131.416C254.39 138.328 249.083 142.484 249.083 142.484H276.981C276.981 142.484 271.674 138.022 271.674 131.416Z" fill="#2B2B2B" />
        <path d="M352.941 131.415V89.4152C352.941 81.1281 350.895 74.683 346.801 70.0824C342.707 65.4835 336.919 63.1838 329.44 63.1838C324.285 63.1838 319.533 64.6769 315.188 67.656C311.459 70.2144 308.518 73.5405 306.352 77.6212L305.922 62.227L283.802 66.8229C283.802 66.8229 289.109 71.8006 289.109 80.9244V131.415C289.109 137.409 283.802 142.483 283.802 142.483H311.701C311.701 142.483 306.394 137.102 306.394 131.415V79.5585C308.176 77.4003 310.222 75.7032 312.535 74.4793C315.112 73.1146 317.766 72.4323 320.495 72.4323C325.548 72.4323 329.312 74.101 331.791 77.4359C334.266 80.7723 335.505 85.878 335.505 92.7501V131.415C335.505 138.941 330.199 142.483 330.199 142.483H358.248C358.248 142.483 352.941 138.328 352.941 131.415Z" fill="#2B2B2B" />
        <path d="M116.972 63.1838C110.704 63.1838 105.094 64.9044 100.143 68.3383C95.1886 71.7765 91.2964 76.4774 88.4674 82.4398C85.6363 88.4049 84.2222 95.2283 84.2222 102.91C84.2222 111.2 85.6865 118.427 88.6195 124.592C91.5497 130.758 95.6693 135.535 100.976 138.92C106.283 142.308 112.473 144 119.549 144C125.513 144 130.566 142.282 134.712 138.844C138.855 135.409 142.191 130.254 144.719 123.378L143.809 122.923C139.663 127.271 134.105 129.444 127.131 129.444C121.571 129.444 116.593 127.852 112.196 124.667C107.799 121.483 104.361 117.112 101.886 111.553C100.556 108.569 99.5955 105.359 98.9799 101.938L144.719 92.5352V90.9306C144.719 82.5416 142.191 75.8203 137.137 70.7649C132.082 65.7108 125.361 63.1838 116.972 63.1838ZM124.747 90.508C122.739 92.6216 118.731 94.4965 113.182 95.6182L98.4936 98.5371C98.2869 96.6185 98.1711 94.6445 98.1711 92.5993C98.1711 87.2425 98.8771 82.6436 100.294 78.8007C101.708 74.9608 103.755 71.9537 106.435 69.7797C109.112 67.6072 112.17 66.5187 115.608 66.5187C119.549 66.5187 122.708 67.7578 125.084 70.2347C127.457 72.7129 128.647 76.0226 128.647 80.1654C128.647 83.8045 127.302 87.8185 124.747 90.508Z" fill="#2B2B2B" />
        <path d="M182.325 63.1838C176.057 63.1838 170.447 64.9044 165.496 68.3383C160.542 71.7765 156.65 76.4774 153.821 82.4398C150.99 88.4049 149.575 95.2283 149.575 102.91C149.575 111.2 151.04 118.427 153.973 124.592C156.903 130.758 161.023 135.535 166.33 138.92C171.636 142.308 177.826 144 184.903 144C190.866 144 195.919 142.282 200.065 138.844C204.208 135.409 207.544 130.254 210.072 123.378L209.162 122.923C205.016 127.271 199.459 129.444 192.484 129.444C186.924 129.444 181.947 127.852 177.549 124.667C173.153 121.483 169.715 117.112 167.239 111.553C165.909 108.569 164.949 105.359 164.333 101.938L210.072 92.5352V90.9306C210.072 82.5416 207.544 75.8203 202.491 70.7649C197.435 65.7108 190.714 63.1838 182.325 63.1838ZM190.1 90.508C188.092 92.6216 184.084 94.4965 178.535 95.6182L163.847 98.5371C163.64 96.6185 163.524 94.6445 163.524 92.5993C163.524 87.2425 164.23 82.6436 165.647 78.8007C167.061 74.9608 169.108 71.9537 171.788 69.7797C174.465 67.6072 177.523 66.5187 180.961 66.5187C184.903 66.5187 188.061 67.7578 190.437 70.2347C192.811 72.7129 194 76.0226 194 80.1654C194 83.8045 192.655 87.8185 190.1 90.508Z" fill="#2B2B2B" />
        <path d="M394.908 63.1838C388.64 63.1838 383.03 64.9044 378.079 68.3383C373.125 71.7765 369.232 76.4774 366.403 82.4398C363.572 88.4049 362.158 95.2283 362.158 102.91C362.158 111.2 363.623 118.427 366.556 124.592C369.486 130.758 373.605 135.535 378.912 138.92C384.219 142.308 390.409 144 397.485 144C403.449 144 408.502 142.282 412.648 138.844C416.791 135.409 420.127 130.254 422.655 123.378L421.745 122.923C417.599 127.271 412.041 129.444 405.067 129.444C399.507 129.444 394.53 127.852 390.132 124.667C385.736 121.483 382.298 117.112 379.822 111.553C378.492 108.569 377.532 105.359 376.916 101.938L422.655 92.5352V90.9306C422.655 82.5416 420.127 75.8203 415.073 70.7649C410.018 65.7108 403.297 63.1838 394.908 63.1838ZM402.683 90.508C400.675 92.6216 396.667 94.4965 391.118 95.6182L376.43 98.5371C376.223 96.6185 376.107 94.6445 376.107 92.5993C376.107 87.2425 376.813 82.6436 378.23 78.8007C379.644 74.9608 381.691 71.9537 384.371 69.7797C387.048 67.6072 390.106 66.5187 393.544 66.5187C397.485 66.5187 400.644 67.7578 403.02 70.2347C405.393 72.7129 406.583 76.0226 406.583 80.1654C406.583 83.8045 405.238 87.8185 402.683 90.508Z" fill="#2B2B2B" />
        <path d="M271.71 47.5544V35.8315L259.051 38.1511C256.353 38.6455 254.393 40.997 254.393 43.7401V55.6634L267.137 53.1272C269.796 52.5981 271.71 50.265 271.71 47.5544Z" fill="#2B2B2B" />
        <path d="M533.416 5.238e-05L433.784 0C430.747 -1.67e-06 429.227 3.67295 431.376 5.81943L444.607 19.0368C448.868 23.2924 454.643 25.6828 460.664 25.6828H503.052C506.067 25.6828 508.959 24.4842 511.089 22.3511L533.416 5.238e-05Z" fill="#3DE5A1" />
        <path d="M538.793 5.51439V105.149C538.793 108.187 535.12 109.707 532.974 107.558L519.757 94.3259C515.501 90.0656 513.111 84.2902 513.111 78.2686V35.8793C513.111 32.8643 514.31 29.9729 516.443 27.842L538.793 5.51439Z" fill="#3DE5A1" />
        <path d="M504.524 69.2083L469.656 34.3393C464.343 34.756 458.563 40.5362 458.146 45.849L493.014 80.7181C498.327 80.3013 504.107 74.5211 504.524 69.2083Z" fill="#2B2B2B" />
        <path d="M457.287 81.5776V55.8786L482.985 81.5776H457.287Z" fill="#2B2B2B" />
        <path d="M505.383 33.4797H479.685L505.383 59.1787V33.4797Z" fill="#2B2B2B" />
    </g>
    <defs>
        <clipPath id="clip0_1547_470">
            <rect width="538.793" height="144" fill="white" />
        </clipPath>
    </defs>
</svg>